<mxfile host="app.diagrams.net" modified="2024-01-19T08:53:44.695Z" agent="Mozilla/5.0 (Windows NT 10.0; Win64; x64) AppleWebKit/537.36 (KHTML, like Gecko) Chrome/120.0.0.0 Safari/537.36" etag="oSV6MytBWy6k37j7wVKb" version="22.1.21" type="device">
  <diagram name="Page-1" id="gbK_uuOsgCaTT4o3czle">
    <mxGraphModel dx="2385" dy="1426" grid="0" gridSize="10" guides="1" tooltips="1" connect="1" arrows="1" fold="1" page="0" pageScale="1" pageWidth="1169" pageHeight="827" math="0" shadow="0">
      <root>
        <mxCell id="0" />
        <mxCell id="1" parent="0" />
        <mxCell id="Bf5jcZ_bA_u7CrTdAy8d-16" value="" style="rounded=0;whiteSpace=wrap;html=1;fontSize=16;fillColor=#dae8fc;strokeColor=#6c8ebf;" vertex="1" parent="1">
          <mxGeometry x="-380" y="-168" width="1187" height="978" as="geometry" />
        </mxCell>
        <mxCell id="Bf5jcZ_bA_u7CrTdAy8d-17" value="" style="rounded=0;whiteSpace=wrap;html=1;fontSize=16;" vertex="1" parent="1">
          <mxGeometry x="452" y="108.25" width="324" height="434.5" as="geometry" />
        </mxCell>
        <mxCell id="Bf5jcZ_bA_u7CrTdAy8d-1" value="" style="whiteSpace=wrap;html=1;aspect=fixed;fontSize=16;fillColor=#cce5ff;strokeColor=#36393d;" vertex="1" parent="1">
          <mxGeometry x="1450" y="-52" width="426" height="426" as="geometry" />
        </mxCell>
        <mxCell id="Bf5jcZ_bA_u7CrTdAy8d-10" value="" style="shape=link;html=1;rounded=0;fontSize=12;startSize=8;endSize=8;curved=1;exitX=0.84;exitY=0.5;exitDx=0;exitDy=0;exitPerimeter=0;entryX=0.2;entryY=0.87;entryDx=0;entryDy=0;entryPerimeter=0;" edge="1" parent="1" source="Bf5jcZ_bA_u7CrTdAy8d-5" target="Bf5jcZ_bA_u7CrTdAy8d-4">
          <mxGeometry width="100" relative="1" as="geometry">
            <mxPoint x="1766" y="150" as="sourcePoint" />
            <mxPoint x="1866" y="150" as="targetPoint" />
          </mxGeometry>
        </mxCell>
        <mxCell id="Bf5jcZ_bA_u7CrTdAy8d-8" value="" style="shape=link;html=1;rounded=0;fontSize=12;startSize=8;endSize=8;curved=1;exitX=0.89;exitY=0.87;exitDx=0;exitDy=0;exitPerimeter=0;entryX=0.16;entryY=0.5;entryDx=0;entryDy=0;entryPerimeter=0;" edge="1" parent="1" source="Bf5jcZ_bA_u7CrTdAy8d-4" target="Bf5jcZ_bA_u7CrTdAy8d-7">
          <mxGeometry width="100" relative="1" as="geometry">
            <mxPoint x="1917" y="263" as="sourcePoint" />
            <mxPoint x="2017" y="263" as="targetPoint" />
          </mxGeometry>
        </mxCell>
        <mxCell id="Bf5jcZ_bA_u7CrTdAy8d-9" value="" style="shape=link;html=1;rounded=0;fontSize=12;startSize=8;endSize=8;curved=1;entryX=0.5;entryY=1;entryDx=0;entryDy=0;entryPerimeter=0;" edge="1" parent="1" source="Bf5jcZ_bA_u7CrTdAy8d-4" target="Bf5jcZ_bA_u7CrTdAy8d-6">
          <mxGeometry width="100" relative="1" as="geometry">
            <mxPoint x="1737" y="175" as="sourcePoint" />
            <mxPoint x="1791" y="251" as="targetPoint" />
          </mxGeometry>
        </mxCell>
        <mxCell id="LW0GFEtAb5VWnj4q2PEH-84" value="" style="whiteSpace=wrap;html=1;aspect=fixed;fontSize=16;fillColor=#cce5ff;strokeColor=#36393d;" parent="1" vertex="1">
          <mxGeometry x="903" y="-52" width="426" height="426" as="geometry" />
        </mxCell>
        <mxCell id="LW0GFEtAb5VWnj4q2PEH-60" value="" style="rounded=0;whiteSpace=wrap;html=1;fontSize=16;" parent="1" vertex="1">
          <mxGeometry x="-320" y="115.5" width="696" height="449.5" as="geometry" />
        </mxCell>
        <mxCell id="LW0GFEtAb5VWnj4q2PEH-59" value="" style="rounded=0;whiteSpace=wrap;html=1;fontSize=16;" parent="1" vertex="1">
          <mxGeometry x="-206" y="-118" width="501" height="151" as="geometry" />
        </mxCell>
        <mxCell id="LW0GFEtAb5VWnj4q2PEH-58" value="" style="rounded=0;whiteSpace=wrap;html=1;fontSize=16;" parent="1" vertex="1">
          <mxGeometry x="-101" y="635" width="888" height="151" as="geometry" />
        </mxCell>
        <mxCell id="LW0GFEtAb5VWnj4q2PEH-1" value="Lorient" style="shape=mxgraph.cisco.routers.atm_router;sketch=0;html=1;pointerEvents=1;dashed=0;fillColor=#036897;strokeColor=#ffffff;strokeWidth=2;verticalLabelPosition=bottom;verticalAlign=top;align=center;outlineConnect=0;fontSize=16;" parent="1" vertex="1">
          <mxGeometry x="-163" y="156" width="78" height="53" as="geometry" />
        </mxCell>
        <mxCell id="LW0GFEtAb5VWnj4q2PEH-2" value="Brest" style="shape=mxgraph.cisco.routers.atm_router;sketch=0;html=1;pointerEvents=1;dashed=0;fillColor=#036897;strokeColor=#ffffff;strokeWidth=2;verticalLabelPosition=bottom;verticalAlign=top;align=center;outlineConnect=0;fontSize=16;" parent="1" vertex="1">
          <mxGeometry x="-269" y="309" width="78" height="53" as="geometry" />
        </mxCell>
        <mxCell id="LW0GFEtAb5VWnj4q2PEH-4" value="Vannes" style="shape=mxgraph.cisco.routers.atm_router;sketch=0;html=1;pointerEvents=1;dashed=0;fillColor=#036897;strokeColor=#ffffff;strokeWidth=2;verticalLabelPosition=bottom;verticalAlign=top;align=center;outlineConnect=0;fontSize=16;" parent="1" vertex="1">
          <mxGeometry x="112" y="162" width="78" height="53" as="geometry" />
        </mxCell>
        <mxCell id="LW0GFEtAb5VWnj4q2PEH-5" value="Saint-Malo" style="shape=mxgraph.cisco.routers.atm_router;sketch=0;html=1;pointerEvents=1;dashed=0;fillColor=#036897;strokeColor=#ffffff;strokeWidth=2;verticalLabelPosition=bottom;verticalAlign=top;align=center;outlineConnect=0;fontSize=16;" parent="1" vertex="1">
          <mxGeometry x="-42" y="448" width="78" height="53" as="geometry" />
        </mxCell>
        <mxCell id="LW0GFEtAb5VWnj4q2PEH-6" value="Rennes" style="shape=mxgraph.cisco.routers.atm_router;sketch=0;html=1;pointerEvents=1;dashed=0;fillColor=#036897;strokeColor=#ffffff;strokeWidth=2;verticalLabelPosition=bottom;verticalAlign=top;align=center;outlineConnect=0;fontSize=16;" parent="1" vertex="1">
          <mxGeometry x="226" y="299" width="78" height="53" as="geometry" />
        </mxCell>
        <mxCell id="LW0GFEtAb5VWnj4q2PEH-7" value="" style="endArrow=none;dashed=1;html=1;rounded=0;fontSize=12;startSize=8;endSize=8;curved=1;entryX=1;entryY=0.5;entryDx=0;entryDy=0;entryPerimeter=0;exitX=0;exitY=0.5;exitDx=0;exitDy=0;exitPerimeter=0;" parent="1" source="LW0GFEtAb5VWnj4q2PEH-4" target="LW0GFEtAb5VWnj4q2PEH-1" edge="1">
          <mxGeometry width="50" height="50" relative="1" as="geometry">
            <mxPoint x="175" y="270" as="sourcePoint" />
            <mxPoint x="225" y="220" as="targetPoint" />
          </mxGeometry>
        </mxCell>
        <mxCell id="LW0GFEtAb5VWnj4q2PEH-13" value="10.0.0.18/30" style="edgeLabel;html=1;align=center;verticalAlign=middle;resizable=0;points=[];fontSize=16;" parent="LW0GFEtAb5VWnj4q2PEH-7" vertex="1" connectable="0">
          <mxGeometry x="0.8582" y="-1" relative="1" as="geometry">
            <mxPoint x="-130" y="1" as="offset" />
          </mxGeometry>
        </mxCell>
        <mxCell id="LW0GFEtAb5VWnj4q2PEH-8" value="" style="endArrow=none;dashed=1;html=1;rounded=0;fontSize=12;startSize=8;endSize=8;curved=1;entryX=1;entryY=0.5;entryDx=0;entryDy=0;entryPerimeter=0;exitX=0.5;exitY=0;exitDx=0;exitDy=0;exitPerimeter=0;" parent="1" source="LW0GFEtAb5VWnj4q2PEH-6" target="LW0GFEtAb5VWnj4q2PEH-4" edge="1">
          <mxGeometry width="50" height="50" relative="1" as="geometry">
            <mxPoint x="181" y="279" as="sourcePoint" />
            <mxPoint x="67" y="241" as="targetPoint" />
          </mxGeometry>
        </mxCell>
        <mxCell id="LW0GFEtAb5VWnj4q2PEH-9" value="" style="endArrow=none;dashed=1;html=1;rounded=0;fontSize=12;startSize=8;endSize=8;curved=1;entryX=1;entryY=0.5;entryDx=0;entryDy=0;entryPerimeter=0;" parent="1" source="LW0GFEtAb5VWnj4q2PEH-6" target="LW0GFEtAb5VWnj4q2PEH-5" edge="1">
          <mxGeometry width="50" height="50" relative="1" as="geometry">
            <mxPoint x="191" y="289" as="sourcePoint" />
            <mxPoint x="77" y="251" as="targetPoint" />
          </mxGeometry>
        </mxCell>
        <mxCell id="LW0GFEtAb5VWnj4q2PEH-10" value="" style="endArrow=none;dashed=1;html=1;rounded=0;fontSize=12;startSize=8;endSize=8;curved=1;entryX=0;entryY=0.5;entryDx=0;entryDy=0;entryPerimeter=0;exitX=0.5;exitY=0;exitDx=0;exitDy=0;exitPerimeter=0;" parent="1" source="LW0GFEtAb5VWnj4q2PEH-2" target="LW0GFEtAb5VWnj4q2PEH-1" edge="1">
          <mxGeometry width="50" height="50" relative="1" as="geometry">
            <mxPoint x="201" y="299" as="sourcePoint" />
            <mxPoint x="87" y="261" as="targetPoint" />
          </mxGeometry>
        </mxCell>
        <mxCell id="LW0GFEtAb5VWnj4q2PEH-11" value="" style="endArrow=none;dashed=1;html=1;rounded=0;fontSize=12;startSize=8;endSize=8;curved=1;entryX=0.88;entryY=0.9;entryDx=0;entryDy=0;entryPerimeter=0;exitX=0.12;exitY=0.1;exitDx=0;exitDy=0;exitPerimeter=0;" parent="1" source="LW0GFEtAb5VWnj4q2PEH-5" target="LW0GFEtAb5VWnj4q2PEH-2" edge="1">
          <mxGeometry width="50" height="50" relative="1" as="geometry">
            <mxPoint x="211" y="309" as="sourcePoint" />
            <mxPoint x="97" y="271" as="targetPoint" />
          </mxGeometry>
        </mxCell>
        <mxCell id="LW0GFEtAb5VWnj4q2PEH-14" value="10.0.0.17/30" style="edgeLabel;html=1;align=center;verticalAlign=middle;resizable=0;points=[];fontSize=16;" parent="1" vertex="1" connectable="0">
          <mxGeometry x="-268.9979178866108" y="291.999295143662" as="geometry">
            <mxPoint x="-1" as="offset" />
          </mxGeometry>
        </mxCell>
        <mxCell id="LW0GFEtAb5VWnj4q2PEH-15" value="10.0.0.13/30" style="edgeLabel;html=1;align=center;verticalAlign=middle;resizable=0;points=[];fontSize=16;" parent="1" vertex="1" connectable="0">
          <mxGeometry x="-72.99791788661085" y="466.99929514366204" as="geometry">
            <mxPoint x="-7" y="-1" as="offset" />
          </mxGeometry>
        </mxCell>
        <mxCell id="LW0GFEtAb5VWnj4q2PEH-17" value="10.0.0.5/30" style="edgeLabel;html=1;align=center;verticalAlign=middle;resizable=0;points=[];fontSize=16;" parent="1" vertex="1" connectable="0">
          <mxGeometry x="238.00208211338915" y="190.99929514366198" as="geometry">
            <mxPoint as="offset" />
          </mxGeometry>
        </mxCell>
        <mxCell id="LW0GFEtAb5VWnj4q2PEH-18" value="10.0.0.6/30" style="edgeLabel;html=1;align=center;verticalAlign=middle;resizable=0;points=[];fontSize=16;" parent="1" vertex="1" connectable="0">
          <mxGeometry x="304.0020821133892" y="280.999295143662" as="geometry" />
        </mxCell>
        <mxCell id="LW0GFEtAb5VWnj4q2PEH-19" value="10.0.0.9/30" style="edgeLabel;html=1;align=center;verticalAlign=middle;resizable=0;points=[];fontSize=16;" parent="1" vertex="1" connectable="0">
          <mxGeometry x="195.00208211338915" y="335.499295143662" as="geometry">
            <mxPoint y="-2" as="offset" />
          </mxGeometry>
        </mxCell>
        <mxCell id="LW0GFEtAb5VWnj4q2PEH-20" value="10.0.0.10/30" style="edgeLabel;html=1;align=center;verticalAlign=middle;resizable=0;points=[];fontSize=16;" parent="1" vertex="1" connectable="0">
          <mxGeometry x="83.00208211338915" y="487.99929514366204" as="geometry">
            <mxPoint x="-2" y="-6" as="offset" />
          </mxGeometry>
        </mxCell>
        <mxCell id="LW0GFEtAb5VWnj4q2PEH-21" value="10.0.0.1/30" style="edgeLabel;html=1;align=center;verticalAlign=middle;resizable=0;points=[];fontSize=16;" parent="1" vertex="1" connectable="0">
          <mxGeometry x="-47.99791788661085" y="198.999295143662" as="geometry" />
        </mxCell>
        <mxCell id="LW0GFEtAb5VWnj4q2PEH-22" value="10.0.0.2/30" style="edgeLabel;html=1;align=center;verticalAlign=middle;resizable=0;points=[];fontSize=16;" parent="1" vertex="1" connectable="0">
          <mxGeometry x="68.00208211338915" y="201.999295143662" as="geometry">
            <mxPoint as="offset" />
          </mxGeometry>
        </mxCell>
        <mxCell id="LW0GFEtAb5VWnj4q2PEH-23" value="10.0.0.14/30" style="edgeLabel;html=1;align=center;verticalAlign=middle;resizable=0;points=[];fontSize=16;" parent="1" vertex="1" connectable="0">
          <mxGeometry x="-153.99791788661085" y="351.99929514366204" as="geometry">
            <mxPoint x="-14" y="-1" as="offset" />
          </mxGeometry>
        </mxCell>
        <mxCell id="LW0GFEtAb5VWnj4q2PEH-25" value="" style="endArrow=none;dashed=1;html=1;dashPattern=1 3;strokeWidth=2;rounded=0;fontSize=12;startSize=8;endSize=8;curved=1;exitX=0.5;exitY=0;exitDx=0;exitDy=0;exitPerimeter=0;entryX=0.5;entryY=1;entryDx=0;entryDy=0;entryPerimeter=0;" parent="1" source="LW0GFEtAb5VWnj4q2PEH-1" target="LW0GFEtAb5VWnj4q2PEH-26" edge="1">
          <mxGeometry width="50" height="50" relative="1" as="geometry">
            <mxPoint x="-24" y="26" as="sourcePoint" />
            <mxPoint x="-116" y="-8" as="targetPoint" />
          </mxGeometry>
        </mxCell>
        <mxCell id="LW0GFEtAb5VWnj4q2PEH-26" value="MP-1" style="shape=mxgraph.cisco.routers.atm_router;sketch=0;html=1;pointerEvents=1;dashed=0;fillColor=#036897;strokeColor=#ffffff;strokeWidth=2;verticalLabelPosition=bottom;verticalAlign=top;align=center;outlineConnect=0;fontSize=16;" parent="1" vertex="1">
          <mxGeometry x="-159" y="-83" width="78" height="53" as="geometry" />
        </mxCell>
        <mxCell id="LW0GFEtAb5VWnj4q2PEH-27" value="MP-2" style="shape=mxgraph.cisco.routers.atm_router;sketch=0;html=1;pointerEvents=1;dashed=0;fillColor=#036897;strokeColor=#ffffff;strokeWidth=2;verticalLabelPosition=bottom;verticalAlign=top;align=center;outlineConnect=0;fontSize=16;" parent="1" vertex="1">
          <mxGeometry x="112" y="-83" width="78" height="53" as="geometry" />
        </mxCell>
        <mxCell id="LW0GFEtAb5VWnj4q2PEH-28" value="" style="endArrow=none;dashed=1;html=1;dashPattern=1 3;strokeWidth=2;rounded=0;fontSize=12;startSize=8;endSize=8;curved=1;exitX=0.5;exitY=0;exitDx=0;exitDy=0;exitPerimeter=0;entryX=0.5;entryY=1;entryDx=0;entryDy=0;entryPerimeter=0;" parent="1" source="LW0GFEtAb5VWnj4q2PEH-4" target="LW0GFEtAb5VWnj4q2PEH-27" edge="1">
          <mxGeometry width="50" height="50" relative="1" as="geometry">
            <mxPoint x="159" y="185" as="sourcePoint" />
            <mxPoint x="163" y="-1" as="targetPoint" />
          </mxGeometry>
        </mxCell>
        <mxCell id="LW0GFEtAb5VWnj4q2PEH-29" value="10.0.0.21/30" style="edgeLabel;html=1;align=center;verticalAlign=middle;resizable=0;points=[];fontSize=16;" parent="1" vertex="1" connectable="0">
          <mxGeometry x="-72.99791788661085" y="140.999295143662" as="geometry" />
        </mxCell>
        <mxCell id="LW0GFEtAb5VWnj4q2PEH-30" value="10.0.0.22/30" style="edgeLabel;html=1;align=center;verticalAlign=middle;resizable=0;points=[];fontSize=16;" parent="1" vertex="1" connectable="0">
          <mxGeometry x="-77.99791788661085" y="11.99929514366201" as="geometry" />
        </mxCell>
        <mxCell id="LW0GFEtAb5VWnj4q2PEH-31" value="PEP" style="shape=mxgraph.cisco.routers.atm_router;sketch=0;html=1;pointerEvents=1;dashed=0;fillColor=#036897;strokeColor=#ffffff;strokeWidth=2;verticalLabelPosition=bottom;verticalAlign=top;align=center;outlineConnect=0;fontSize=16;" parent="1" vertex="1">
          <mxGeometry x="558" y="294" width="78" height="53" as="geometry" />
        </mxCell>
        <mxCell id="LW0GFEtAb5VWnj4q2PEH-32" value="" style="endArrow=none;dashed=1;html=1;dashPattern=1 3;strokeWidth=2;rounded=0;fontSize=12;startSize=8;endSize=8;curved=1;exitX=1;exitY=0.5;exitDx=0;exitDy=0;exitPerimeter=0;entryX=0;entryY=0.5;entryDx=0;entryDy=0;entryPerimeter=0;" parent="1" source="LW0GFEtAb5VWnj4q2PEH-6" target="LW0GFEtAb5VWnj4q2PEH-31" edge="1">
          <mxGeometry width="50" height="50" relative="1" as="geometry">
            <mxPoint x="307" y="333.5" as="sourcePoint" />
            <mxPoint x="609" y="376" as="targetPoint" />
          </mxGeometry>
        </mxCell>
        <mxCell id="LW0GFEtAb5VWnj4q2PEH-33" value="10.0.0.30/30" style="edgeLabel;html=1;align=center;verticalAlign=middle;resizable=0;points=[];fontSize=16;" parent="1" vertex="1" connectable="0">
          <mxGeometry x="508.0020821133892" y="308.99929514366204" as="geometry">
            <mxPoint x="-1" y="-3" as="offset" />
          </mxGeometry>
        </mxCell>
        <mxCell id="LW0GFEtAb5VWnj4q2PEH-34" value="10.0.0.25/30" style="edgeLabel;html=1;align=center;verticalAlign=middle;resizable=0;points=[];fontSize=16;" parent="1" vertex="1" connectable="0">
          <mxGeometry x="204.00208211338915" y="143.999295143662" as="geometry" />
        </mxCell>
        <mxCell id="LW0GFEtAb5VWnj4q2PEH-35" value="10.0.0.26/30" style="edgeLabel;html=1;align=center;verticalAlign=middle;resizable=0;points=[];fontSize=16;" parent="1" vertex="1" connectable="0">
          <mxGeometry x="126.00208211338915" y="7.99929514366201" as="geometry" />
        </mxCell>
        <mxCell id="LW0GFEtAb5VWnj4q2PEH-36" value="SB-1" style="shape=mxgraph.cisco.routers.atm_router;sketch=0;html=1;pointerEvents=1;dashed=0;fillColor=#036897;strokeColor=#ffffff;strokeWidth=2;verticalLabelPosition=bottom;verticalAlign=top;align=center;outlineConnect=0;fontSize=16;" parent="1" vertex="1">
          <mxGeometry x="-38" y="690" width="78" height="53" as="geometry" />
        </mxCell>
        <mxCell id="LW0GFEtAb5VWnj4q2PEH-37" value="" style="endArrow=none;dashed=1;html=1;dashPattern=1 3;strokeWidth=2;rounded=0;fontSize=12;startSize=8;endSize=8;curved=1;exitX=0.5;exitY=1;exitDx=0;exitDy=0;exitPerimeter=0;entryX=0.5;entryY=0;entryDx=0;entryDy=0;entryPerimeter=0;" parent="1" source="LW0GFEtAb5VWnj4q2PEH-5" target="LW0GFEtAb5VWnj4q2PEH-36" edge="1">
          <mxGeometry width="50" height="50" relative="1" as="geometry">
            <mxPoint x="-273" y="723" as="sourcePoint" />
            <mxPoint x="32" y="773" as="targetPoint" />
          </mxGeometry>
        </mxCell>
        <mxCell id="LW0GFEtAb5VWnj4q2PEH-38" value="10.0.0.33/30" style="edgeLabel;html=1;align=center;verticalAlign=middle;resizable=0;points=[];fontSize=16;" parent="1" vertex="1" connectable="0">
          <mxGeometry x="46.00208211338915" y="545.999295143662" as="geometry">
            <mxPoint x="1" y="-4" as="offset" />
          </mxGeometry>
        </mxCell>
        <mxCell id="LW0GFEtAb5VWnj4q2PEH-39" value="10.0.0.34/30" style="edgeLabel;html=1;align=center;verticalAlign=middle;resizable=0;points=[];fontSize=16;" parent="1" vertex="1" connectable="0">
          <mxGeometry x="-45.99791788661085" y="669.999295143662" as="geometry">
            <mxPoint x="-2" y="-6" as="offset" />
          </mxGeometry>
        </mxCell>
        <mxCell id="LW0GFEtAb5VWnj4q2PEH-40" value="10.0.0.29/30" style="edgeLabel;html=1;align=center;verticalAlign=middle;resizable=0;points=[];fontSize=16;" parent="1" vertex="1" connectable="0">
          <mxGeometry x="347.0020821133892" y="343.99929514366204" as="geometry">
            <mxPoint x="-1" y="-3" as="offset" />
          </mxGeometry>
        </mxCell>
        <mxCell id="LW0GFEtAb5VWnj4q2PEH-43" value="" style="endArrow=none;dashed=1;html=1;dashPattern=1 3;strokeWidth=2;rounded=0;fontSize=12;startSize=8;endSize=8;curved=1;entryX=1;entryY=0.5;entryDx=0;entryDy=0;entryPerimeter=0;exitX=0.5;exitY=0;exitDx=0;exitDy=0;exitPerimeter=0;" parent="1" source="LW0GFEtAb5VWnj4q2PEH-31" target="LW0GFEtAb5VWnj4q2PEH-27" edge="1">
          <mxGeometry width="50" height="50" relative="1" as="geometry">
            <mxPoint x="461" y="252" as="sourcePoint" />
            <mxPoint x="511" y="202" as="targetPoint" />
          </mxGeometry>
        </mxCell>
        <mxCell id="LW0GFEtAb5VWnj4q2PEH-44" value="10.0.0.37/30" style="edgeLabel;html=1;align=center;verticalAlign=middle;resizable=0;points=[];fontSize=16;" parent="1" vertex="1" connectable="0">
          <mxGeometry x="640.0020821133892" y="269.99929514366204" as="geometry">
            <mxPoint x="-1" y="-3" as="offset" />
          </mxGeometry>
        </mxCell>
        <mxCell id="LW0GFEtAb5VWnj4q2PEH-45" value="10.0.0.38/30" style="edgeLabel;html=1;align=center;verticalAlign=middle;resizable=0;points=[];fontSize=16;" parent="1" vertex="1" connectable="0">
          <mxGeometry x="238.00208211338918" y="-64.00070485633796" as="geometry">
            <mxPoint x="-1" y="-3" as="offset" />
          </mxGeometry>
        </mxCell>
        <mxCell id="LW0GFEtAb5VWnj4q2PEH-46" value="SB-2" style="shape=mxgraph.cisco.routers.atm_router;sketch=0;html=1;pointerEvents=1;dashed=0;fillColor=#036897;strokeColor=#ffffff;strokeWidth=2;verticalLabelPosition=bottom;verticalAlign=top;align=center;outlineConnect=0;fontSize=16;" parent="1" vertex="1">
          <mxGeometry x="562" y="690" width="78" height="53" as="geometry" />
        </mxCell>
        <mxCell id="LW0GFEtAb5VWnj4q2PEH-47" value="" style="endArrow=none;dashed=1;html=1;rounded=0;fontSize=12;startSize=8;endSize=8;curved=1;exitX=1;exitY=0.5;exitDx=0;exitDy=0;exitPerimeter=0;entryX=0;entryY=0.5;entryDx=0;entryDy=0;entryPerimeter=0;" parent="1" source="LW0GFEtAb5VWnj4q2PEH-26" target="LW0GFEtAb5VWnj4q2PEH-27" edge="1">
          <mxGeometry width="50" height="50" relative="1" as="geometry">
            <mxPoint x="345" as="sourcePoint" />
            <mxPoint x="395" y="-50" as="targetPoint" />
          </mxGeometry>
        </mxCell>
        <mxCell id="LW0GFEtAb5VWnj4q2PEH-48" value="" style="endArrow=none;dashed=1;html=1;rounded=0;fontSize=12;startSize=8;endSize=8;curved=1;exitX=1;exitY=0.5;exitDx=0;exitDy=0;exitPerimeter=0;entryX=0;entryY=0.5;entryDx=0;entryDy=0;entryPerimeter=0;" parent="1" source="LW0GFEtAb5VWnj4q2PEH-36" target="LW0GFEtAb5VWnj4q2PEH-46" edge="1">
          <mxGeometry width="50" height="50" relative="1" as="geometry">
            <mxPoint x="345" y="541" as="sourcePoint" />
            <mxPoint x="395" y="491" as="targetPoint" />
          </mxGeometry>
        </mxCell>
        <mxCell id="LW0GFEtAb5VWnj4q2PEH-52" value="192.168.1.1/24" style="edgeLabel;html=1;align=center;verticalAlign=middle;resizable=0;points=[];fontSize=16;" parent="LW0GFEtAb5VWnj4q2PEH-48" vertex="1" connectable="0">
          <mxGeometry x="-0.903" y="5" relative="1" as="geometry">
            <mxPoint x="31" y="-7" as="offset" />
          </mxGeometry>
        </mxCell>
        <mxCell id="LW0GFEtAb5VWnj4q2PEH-49" value="" style="endArrow=none;dashed=1;html=1;dashPattern=1 3;strokeWidth=2;rounded=0;fontSize=12;startSize=8;endSize=8;curved=1;entryX=0.5;entryY=1;entryDx=0;entryDy=0;entryPerimeter=0;exitX=0.5;exitY=0;exitDx=0;exitDy=0;exitPerimeter=0;" parent="1" source="LW0GFEtAb5VWnj4q2PEH-46" target="LW0GFEtAb5VWnj4q2PEH-31" edge="1">
          <mxGeometry width="50" height="50" relative="1" as="geometry">
            <mxPoint x="345" y="541" as="sourcePoint" />
            <mxPoint x="395" y="491" as="targetPoint" />
          </mxGeometry>
        </mxCell>
        <mxCell id="LW0GFEtAb5VWnj4q2PEH-50" value="10.0.0.42/30" style="edgeLabel;html=1;align=center;verticalAlign=middle;resizable=0;points=[];fontSize=16;" parent="1" vertex="1" connectable="0">
          <mxGeometry x="656.0020821133892" y="676.999295143662" as="geometry">
            <mxPoint x="-2" y="-6" as="offset" />
          </mxGeometry>
        </mxCell>
        <mxCell id="LW0GFEtAb5VWnj4q2PEH-51" value="10.0.0.41/30" style="edgeLabel;html=1;align=center;verticalAlign=middle;resizable=0;points=[];fontSize=16;" parent="1" vertex="1" connectable="0">
          <mxGeometry x="666.0020821133892" y="374.99929514366204" as="geometry">
            <mxPoint x="-5" y="1" as="offset" />
          </mxGeometry>
        </mxCell>
        <mxCell id="LW0GFEtAb5VWnj4q2PEH-53" value="192.168.1.2/24" style="edgeLabel;html=1;align=center;verticalAlign=middle;resizable=0;points=[];fontSize=16;" parent="1" vertex="1" connectable="0">
          <mxGeometry x="505.00235294117635" y="697.0000000000002" as="geometry" />
        </mxCell>
        <mxCell id="LW0GFEtAb5VWnj4q2PEH-61" value="MonoPaul" style="rounded=0;whiteSpace=wrap;html=1;fontSize=16;" parent="1" vertex="1">
          <mxGeometry x="1044" y="-16" width="120" height="60" as="geometry" />
        </mxCell>
        <mxCell id="LW0GFEtAb5VWnj4q2PEH-62" value="ReefTélécom" style="rounded=0;whiteSpace=wrap;html=1;fontSize=16;" parent="1" vertex="1">
          <mxGeometry x="934" y="131" width="120" height="60" as="geometry" />
        </mxCell>
        <mxCell id="LW0GFEtAb5VWnj4q2PEH-63" value="PireEnPire" style="rounded=0;whiteSpace=wrap;html=1;fontSize=16;" parent="1" vertex="1">
          <mxGeometry x="1173" y="131" width="120" height="60" as="geometry" />
        </mxCell>
        <mxCell id="LW0GFEtAb5VWnj4q2PEH-64" value="SalutBank" style="rounded=0;whiteSpace=wrap;html=1;fontSize=16;" parent="1" vertex="1">
          <mxGeometry x="929" y="275.5" width="374" height="60" as="geometry" />
        </mxCell>
        <mxCell id="LW0GFEtAb5VWnj4q2PEH-68" value="" style="endArrow=none;dashed=1;html=1;dashPattern=1 3;strokeWidth=2;rounded=0;fontSize=12;startSize=8;endSize=8;curved=1;entryX=0.75;entryY=1;entryDx=0;entryDy=0;exitX=0.5;exitY=0;exitDx=0;exitDy=0;" parent="1" source="LW0GFEtAb5VWnj4q2PEH-63" target="LW0GFEtAb5VWnj4q2PEH-61" edge="1">
          <mxGeometry width="50" height="50" relative="1" as="geometry">
            <mxPoint x="1334" y="131" as="sourcePoint" />
            <mxPoint x="1384" y="81" as="targetPoint" />
          </mxGeometry>
        </mxCell>
        <mxCell id="LW0GFEtAb5VWnj4q2PEH-69" value="" style="endArrow=none;dashed=1;html=1;dashPattern=1 3;strokeWidth=2;rounded=0;fontSize=12;startSize=8;endSize=8;curved=1;entryX=0.25;entryY=1;entryDx=0;entryDy=0;exitX=0.5;exitY=0;exitDx=0;exitDy=0;" parent="1" source="LW0GFEtAb5VWnj4q2PEH-62" target="LW0GFEtAb5VWnj4q2PEH-61" edge="1">
          <mxGeometry width="50" height="50" relative="1" as="geometry">
            <mxPoint x="975" y="97" as="sourcePoint" />
            <mxPoint x="1025" y="47" as="targetPoint" />
          </mxGeometry>
        </mxCell>
        <mxCell id="LW0GFEtAb5VWnj4q2PEH-71" value="" style="endArrow=none;dashed=1;html=1;dashPattern=1 3;strokeWidth=2;rounded=0;fontSize=12;startSize=8;endSize=8;curved=1;exitX=0.5;exitY=1;exitDx=0;exitDy=0;entryX=0.25;entryY=0;entryDx=0;entryDy=0;" parent="1" source="LW0GFEtAb5VWnj4q2PEH-62" target="LW0GFEtAb5VWnj4q2PEH-64" edge="1">
          <mxGeometry width="50" height="50" relative="1" as="geometry">
            <mxPoint x="1334" y="131" as="sourcePoint" />
            <mxPoint x="1384" y="81" as="targetPoint" />
          </mxGeometry>
        </mxCell>
        <mxCell id="LW0GFEtAb5VWnj4q2PEH-72" value="" style="endArrow=none;dashed=1;html=1;dashPattern=1 3;strokeWidth=2;rounded=0;fontSize=12;startSize=8;endSize=8;curved=1;exitX=0.5;exitY=1;exitDx=0;exitDy=0;entryX=0.75;entryY=0;entryDx=0;entryDy=0;" parent="1" source="LW0GFEtAb5VWnj4q2PEH-63" target="LW0GFEtAb5VWnj4q2PEH-64" edge="1">
          <mxGeometry width="50" height="50" relative="1" as="geometry">
            <mxPoint x="1004" y="201" as="sourcePoint" />
            <mxPoint x="1033" y="286" as="targetPoint" />
          </mxGeometry>
        </mxCell>
        <mxCell id="LW0GFEtAb5VWnj4q2PEH-75" value="" style="shape=flexArrow;endArrow=classic;html=1;rounded=0;fontSize=12;startSize=8;endSize=8;curved=1;" parent="1" edge="1">
          <mxGeometry width="50" height="50" relative="1" as="geometry">
            <mxPoint x="971" y="93" as="sourcePoint" />
            <mxPoint x="1021" y="43" as="targetPoint" />
          </mxGeometry>
        </mxCell>
        <mxCell id="LW0GFEtAb5VWnj4q2PEH-76" value="Client" style="edgeLabel;html=1;align=center;verticalAlign=middle;resizable=0;points=[];fontSize=16;" parent="LW0GFEtAb5VWnj4q2PEH-75" vertex="1" connectable="0">
          <mxGeometry x="0.4321" y="-9" relative="1" as="geometry">
            <mxPoint x="-19" y="11" as="offset" />
          </mxGeometry>
        </mxCell>
        <mxCell id="LW0GFEtAb5VWnj4q2PEH-77" value="" style="shape=flexArrow;endArrow=classic;html=1;rounded=0;fontSize=12;startSize=8;endSize=8;curved=1;" parent="1" edge="1">
          <mxGeometry width="50" height="50" relative="1" as="geometry">
            <mxPoint x="1257" y="108" as="sourcePoint" />
            <mxPoint x="1197" y="49" as="targetPoint" />
          </mxGeometry>
        </mxCell>
        <mxCell id="LW0GFEtAb5VWnj4q2PEH-78" value="Client" style="edgeLabel;html=1;align=center;verticalAlign=middle;resizable=0;points=[];fontSize=16;" parent="LW0GFEtAb5VWnj4q2PEH-77" vertex="1" connectable="0">
          <mxGeometry x="0.4321" y="-9" relative="1" as="geometry">
            <mxPoint x="9" y="24" as="offset" />
          </mxGeometry>
        </mxCell>
        <mxCell id="LW0GFEtAb5VWnj4q2PEH-80" value="" style="shape=flexArrow;endArrow=classic;html=1;rounded=0;fontSize=12;startSize=8;endSize=8;curved=1;" parent="1" edge="1">
          <mxGeometry width="50" height="50" relative="1" as="geometry">
            <mxPoint x="993" y="266.5" as="sourcePoint" />
            <mxPoint x="971" y="209" as="targetPoint" />
          </mxGeometry>
        </mxCell>
        <mxCell id="LW0GFEtAb5VWnj4q2PEH-81" value="Client" style="edgeLabel;html=1;align=center;verticalAlign=middle;resizable=0;points=[];fontSize=16;" parent="LW0GFEtAb5VWnj4q2PEH-80" vertex="1" connectable="0">
          <mxGeometry x="0.4321" y="-9" relative="1" as="geometry">
            <mxPoint x="-3" y="26" as="offset" />
          </mxGeometry>
        </mxCell>
        <mxCell id="LW0GFEtAb5VWnj4q2PEH-82" value="" style="shape=flexArrow;endArrow=classic;html=1;rounded=0;fontSize=12;startSize=8;endSize=8;curved=1;" parent="1" edge="1">
          <mxGeometry width="50" height="50" relative="1" as="geometry">
            <mxPoint x="1230" y="269" as="sourcePoint" />
            <mxPoint x="1254" y="199" as="targetPoint" />
          </mxGeometry>
        </mxCell>
        <mxCell id="LW0GFEtAb5VWnj4q2PEH-83" value="Client" style="edgeLabel;html=1;align=center;verticalAlign=middle;resizable=0;points=[];fontSize=16;" parent="LW0GFEtAb5VWnj4q2PEH-82" vertex="1" connectable="0">
          <mxGeometry x="0.4321" y="-9" relative="1" as="geometry">
            <mxPoint x="-14" y="23" as="offset" />
          </mxGeometry>
        </mxCell>
        <mxCell id="LW0GFEtAb5VWnj4q2PEH-85" value="" style="endArrow=none;html=1;rounded=0;fontSize=12;startSize=8;endSize=8;curved=1;entryX=1;entryY=0.5;entryDx=0;entryDy=0;exitX=0;exitY=0.5;exitDx=0;exitDy=0;" parent="1" source="LW0GFEtAb5VWnj4q2PEH-63" target="LW0GFEtAb5VWnj4q2PEH-62" edge="1">
          <mxGeometry width="50" height="50" relative="1" as="geometry">
            <mxPoint x="1173" y="161" as="sourcePoint" />
            <mxPoint x="1054" y="161" as="targetPoint" />
          </mxGeometry>
        </mxCell>
        <mxCell id="LW0GFEtAb5VWnj4q2PEH-87" value="Pierring" style="edgeLabel;html=1;align=center;verticalAlign=middle;resizable=0;points=[];fontSize=16;" parent="LW0GFEtAb5VWnj4q2PEH-85" vertex="1" connectable="0">
          <mxGeometry x="-0.0324" y="1" relative="1" as="geometry">
            <mxPoint x="-2" y="-1" as="offset" />
          </mxGeometry>
        </mxCell>
        <mxCell id="LW0GFEtAb5VWnj4q2PEH-90" value="10.0.0.45/30" style="edgeLabel;html=1;align=center;verticalAlign=middle;resizable=0;points=[];fontSize=16;" parent="1" vertex="1" connectable="0">
          <mxGeometry x="-41.99791788661082" y="-94.00070485633796" as="geometry">
            <mxPoint x="-1" y="-3" as="offset" />
          </mxGeometry>
        </mxCell>
        <mxCell id="LW0GFEtAb5VWnj4q2PEH-91" value="10.0.0.46/30" style="edgeLabel;html=1;align=center;verticalAlign=middle;resizable=0;points=[];fontSize=16;" parent="1" vertex="1" connectable="0">
          <mxGeometry x="88.00208211338918" y="-94.00070485633796" as="geometry">
            <mxPoint x="-1" y="-3" as="offset" />
          </mxGeometry>
        </mxCell>
        <mxCell id="Bf5jcZ_bA_u7CrTdAy8d-2" value="" style="shape=mxgraph.cisco.servers.fileserver;sketch=0;html=1;pointerEvents=1;dashed=0;fillColor=#036897;strokeColor=#ffffff;strokeWidth=2;verticalLabelPosition=bottom;verticalAlign=top;align=center;outlineConnect=0;fontSize=16;" vertex="1" parent="1">
          <mxGeometry x="1650.5" y="-23" width="43" height="62" as="geometry" />
        </mxCell>
        <mxCell id="Bf5jcZ_bA_u7CrTdAy8d-4" value="" style="shape=mxgraph.cisco.storage.cloud;sketch=0;html=1;pointerEvents=1;dashed=0;fillColor=#036897;strokeColor=#ffffff;strokeWidth=2;verticalLabelPosition=bottom;verticalAlign=top;align=center;outlineConnect=0;fontSize=16;" vertex="1" parent="1">
          <mxGeometry x="1579" y="88" width="186" height="106" as="geometry" />
        </mxCell>
        <mxCell id="Bf5jcZ_bA_u7CrTdAy8d-5" value="" style="shape=mxgraph.cisco.computers_and_peripherals.macintosh;sketch=0;html=1;pointerEvents=1;dashed=0;fillColor=#036897;strokeColor=#ffffff;strokeWidth=2;verticalLabelPosition=bottom;verticalAlign=top;align=center;outlineConnect=0;fontSize=16;" vertex="1" parent="1">
          <mxGeometry x="1470" y="215" width="99" height="64" as="geometry" />
        </mxCell>
        <mxCell id="Bf5jcZ_bA_u7CrTdAy8d-6" value="" style="shape=mxgraph.cisco.computers_and_peripherals.laptop;sketch=0;html=1;pointerEvents=1;dashed=0;fillColor=#036897;strokeColor=#ffffff;strokeWidth=2;verticalLabelPosition=bottom;verticalAlign=top;align=center;outlineConnect=0;fontSize=16;" vertex="1" parent="1">
          <mxGeometry x="1618" y="283" width="90" height="61" as="geometry" />
        </mxCell>
        <mxCell id="Bf5jcZ_bA_u7CrTdAy8d-7" value="" style="shape=mxgraph.cisco.computers_and_peripherals.pc;sketch=0;html=1;pointerEvents=1;dashed=0;fillColor=#036897;strokeColor=#ffffff;strokeWidth=2;verticalLabelPosition=bottom;verticalAlign=top;align=center;outlineConnect=0;fontSize=16;" vertex="1" parent="1">
          <mxGeometry x="1769" y="205.5" width="78" height="70" as="geometry" />
        </mxCell>
        <mxCell id="Bf5jcZ_bA_u7CrTdAy8d-11" value="" style="shape=link;html=1;rounded=0;fontSize=12;startSize=8;endSize=8;curved=1;exitX=0.5;exitY=0.05;exitDx=0;exitDy=0;exitPerimeter=0;entryX=0.5;entryY=1;entryDx=0;entryDy=0;entryPerimeter=0;" edge="1" parent="1" source="Bf5jcZ_bA_u7CrTdAy8d-4" target="Bf5jcZ_bA_u7CrTdAy8d-2">
          <mxGeometry width="100" relative="1" as="geometry">
            <mxPoint x="1766" y="150" as="sourcePoint" />
            <mxPoint x="1866" y="150" as="targetPoint" />
          </mxGeometry>
        </mxCell>
        <mxCell id="Bf5jcZ_bA_u7CrTdAy8d-12" value="Serveur AZURE" style="text;html=1;strokeColor=none;fillColor=none;align=center;verticalAlign=middle;whiteSpace=wrap;rounded=0;fontSize=16;" vertex="1" parent="1">
          <mxGeometry x="1693.5" y="-7" width="60" height="30" as="geometry" />
        </mxCell>
        <mxCell id="Bf5jcZ_bA_u7CrTdAy8d-13" value="Internet" style="text;html=1;strokeColor=none;fillColor=none;align=center;verticalAlign=middle;whiteSpace=wrap;rounded=0;fontSize=16;" vertex="1" parent="1">
          <mxGeometry x="1648" y="126" width="60" height="30" as="geometry" />
        </mxCell>
      </root>
    </mxGraphModel>
  </diagram>
</mxfile>
